<svg xmlns="http://www.w3.org/2000/svg" width="682.667" height="682.667" preserveAspectRatio="xMidYMid meet" version="1.0" viewBox="0 0 512 512"><g fill="#000" stroke="none"><path d="M2524 5111 c-87 -22 -120 -52 -611 -543 -454 -455 -493 -496 -493 -527 0 -28 12 -46 83 -118 l82 -85 80 5 c160 9 281 -30 381 -125 95 -90 144 -202 144 -326 -1 -133 -42 -235 -135 -327 -187 -187 -476 -181 -660 16 -88 94 -128 220 -118 372 l6 78 -85 85 c-73 72 -89 84 -118 84 -32 0 -70 -35 -528 -492 -561 -561 -546 -542 -547 -688 0 -147 3 -152 386 -536 l330 -330 -58 -18 c-131 -40 -267 -135 -358 -249 -208 -260 -225 -629 -41 -906 251 -377 774 -457 1129 -172 106 86 204 228 243 354 l18 58 330 -330 c384 -383 389 -386 536 -386 146 1 127 -14 688 547 457 458 492 496 492 528 0 29 -12 45 -84 118 l-85 85 -78 -6 c-156 -10 -279 30 -379 125 -97 92 -144 201 -144 334 0 173 99 331 255 408 137 67 306 60 437 -17 58 -33 140 -122 171 -183 39 -78 50 -131 48 -250 l-1 -111 84 -81 c71 -70 89 -82 117 -82 31 0 72 39 527 493 561 560 546 541 547 687 0 147 -3 152 -386 536 l-330 330 58 18 c135 43 265 133 359 250 207 258 223 629 40 905 -251 376 -768 457 -1126 175 -105 -82 -207 -230 -246 -357 l-18 -58 -330 330 c-286 285 -339 334 -390 357 -63 29 -164 40 -222 25z m133 -192 c15 -5 210 -192 433 -415 392 -390 407 -404 444 -404 28 0 45 7 65 28 25 24 28 37 35 116 19 249 168 443 400 521 97 33 240 37 332 10 202 -59 356 -214 410 -412 21 -78 20 -226 -1 -299 -50 -174 -173 -316 -331 -384 -58 -25 -177 -50 -241 -50 -60 0 -103 -40 -103 -96 0 -37 15 -53 409 -449 362 -363 410 -414 417 -448 16 -89 17 -87 -449 -554 -237 -238 -434 -433 -438 -433 -4 0 -7 40 -7 88 -1 135 -36 249 -111 360 -188 277 -571 364 -861 195 -130 -76 -246 -220 -291 -363 -30 -93 -36 -237 -15 -334 53 -238 240 -431 476 -491 35 -9 104 -17 152 -17 48 0 88 -3 88 -7 0 -14 -857 -860 -887 -875 -37 -19 -80 -20 -120 -5 -15 5 -210 192 -434 415 -390 389 -406 404 -443 404 -56 0 -96 -43 -96 -103 0 -74 -27 -193 -59 -260 -140 -292 -498 -415 -786 -270 -254 129 -380 429 -290 698 50 151 161 278 302 346 67 32 186 59 260 59 60 0 103 40 103 96 0 36 -15 53 -409 448 -362 363 -410 415 -417 449 -14 82 -14 83 455 551 l439 439 0 -90 c1 -178 60 -322 187 -449 207 -207 508 -254 767 -117 89 46 198 153 251 243 109 188 116 421 17 618 -110 219 -326 353 -572 353 l-92 0 435 436 c239 239 448 441 464 449 36 16 74 17 112 3z" transform="translate(0.000000,512.000000) scale(0.100000,-0.100000)"/></g></svg>